<svg width="24" height="24" viewBox="0 0 24 24" fill="none" xmlns="http://www.w3.org/2000/svg">
<path fill-rule="evenodd" clip-rule="evenodd" d="M20.0823 4.97814L11.5098 13.5506L14.2666 20.3442L20.0823 4.97814ZM10.4491 12.49L19.0216 3.91748L3.65241 9.73435L10.4491 12.49ZM22.4241 3.02836L15.3286 21.7759C15.3276 21.7786 15.3266 21.7813 15.3255 21.7839C15.3251 21.7849 15.3248 21.7858 15.3244 21.7868C15.2397 22.0004 15.0917 22.183 14.9001 22.3099C14.7086 22.4369 14.4828 22.5022 14.2531 22.497C14.0233 22.4917 13.8007 22.4163 13.6151 22.2808C13.4364 22.1503 13.3003 21.9701 13.2236 21.7629L10.0697 13.991C10.0638 13.9764 10.0583 13.9615 10.0533 13.9465C10.0383 13.9415 10.0235 13.9361 10.009 13.9302L2.23977 10.7802C2.03177 10.7047 1.85042 10.5694 1.71869 10.391C1.58094 10.2045 1.50419 9.97995 1.49896 9.74812C1.49373 9.5163 1.56026 9.28851 1.68945 9.09595C1.81865 8.90338 2.00419 8.75545 2.22069 8.67238L2.22387 8.67117L20.9714 1.5757C20.972 1.57549 20.9725 1.57527 20.9731 1.57506C21.1756 1.49799 21.396 1.48102 21.6079 1.52619C21.8204 1.57149 22.0152 1.67735 22.1688 1.83097C22.3224 1.98459 22.4283 2.17941 22.4736 2.3919C22.5187 2.60364 22.5018 2.8239 22.4249 3.02624C22.4246 3.02694 22.4243 3.02765 22.4241 3.02836Z" fill="white"/>
</svg>
