<svg width="24" height="24" viewBox="0 0 24 24" fill="none" xmlns="http://www.w3.org/2000/svg">
<path fill-rule="evenodd" clip-rule="evenodd" d="M6.4149 1.83272C6.57214 1.95622 6.74874 2.12236 6.95191 2.32304C7.3872 2.75145 7.89219 3.43783 8.32551 4.09676C8.76369 4.76308 9.16972 5.46451 9.3973 5.95273L9.39744 5.95304L9.39759 5.95335C9.52658 6.23075 9.64285 6.48212 9.72457 6.70243C9.80756 6.92617 9.87653 7.17226 9.87698 7.44081C9.87791 8.00296 9.57279 8.43682 9.27888 8.83699C9.19444 8.95195 9.1227 9.04616 9.06087 9.12735C8.92758 9.30237 8.84021 9.4171 8.77026 9.54979C8.70203 9.67923 8.68212 9.77268 8.71441 9.92312C8.76098 10.14 8.96343 10.6149 9.35655 11.2361C9.73673 11.8368 10.2573 12.5144 10.8792 13.1344C11.501 13.7542 12.1678 14.261 12.7566 14.6277C13.3633 15.0056 13.8305 15.1996 14.0537 15.2472C14.209 15.2803 14.3059 15.2596 14.4356 15.1921C14.5725 15.1209 14.6942 15.0279 14.8834 14.8834C14.9578 14.8266 15.0426 14.7619 15.1429 14.6874L15.1431 14.6872L15.1506 14.6816C15.5522 14.3833 15.9983 14.0518 16.5638 14.0524C16.8432 14.0527 17.094 14.1316 17.3148 14.2217C17.5257 14.3079 17.7681 14.43 18.0339 14.5639L18.0562 14.5751C18.5221 14.8101 19.215 15.2081 19.8857 15.642C20.5445 16.0683 21.2398 16.5659 21.6727 17.002L21.6733 17.0027C21.8745 17.2059 22.0411 17.3825 22.1649 17.5397C22.2847 17.6919 22.4163 17.8887 22.4717 18.1335C22.5342 18.4093 22.4776 18.6387 22.4195 18.7979C22.3933 18.8696 22.3624 18.9385 22.3403 18.9877C22.3368 18.9954 22.3334 19.0029 22.3301 19.0103C22.3095 19.0559 22.2916 19.0958 22.2725 19.1415L22.272 19.1426L22.2716 19.1437C22.0756 19.6083 21.8373 20.0538 21.5596 20.4747L21.5588 20.4759L21.558 20.4772C21.0153 21.2924 20.5049 21.825 19.7114 22.1946C19.2991 22.3867 18.7099 22.5806 17.7943 22.4665C16.9137 22.3567 15.768 21.9668 14.2043 21.091L14.2039 21.0908C11.7017 19.6874 9.96545 18.4776 7.72575 16.2441C5.49262 14.0172 4.39498 12.5638 2.85737 9.77049C1.30942 6.95841 1.31164 5.22429 1.7537 4.27967C2.12486 3.48655 2.66282 2.97844 3.4753 2.43865L3.4769 2.43759L3.47851 2.43653C3.89982 2.15972 4.3456 1.92208 4.81026 1.72658L4.81179 1.72593L4.81332 1.72529C4.85931 1.70618 4.89953 1.68815 4.94551 1.66754C4.95272 1.66431 4.96008 1.66101 4.96762 1.65764C5.01703 1.63553 5.08594 1.60478 5.15763 1.57874C5.31655 1.52101 5.54553 1.46463 5.8208 1.5267C6.06553 1.58188 6.26243 1.71297 6.4149 1.83272ZM5.39057 3.10977C5.01142 3.2694 4.64764 3.46332 4.30376 3.68911C3.61739 4.14532 3.32315 4.46487 3.11229 4.91546C2.97216 5.2149 2.71281 6.39734 4.17143 9.04714C5.64038 11.7157 6.65212 13.0551 8.78492 15.182C10.911 17.3021 12.5319 18.4332 14.9373 19.7823C16.4092 20.6067 17.3635 20.9011 17.98 20.978C18.5615 21.0505 18.8664 20.9334 19.078 20.8349C19.5321 20.6234 19.8531 20.3312 20.3085 19.6472C20.5349 19.3039 20.7292 18.9405 20.8891 18.5617C20.9106 18.5101 20.9318 18.4625 20.9496 18.4227C20.8797 18.3397 20.7726 18.2249 20.6077 18.0584C20.2962 17.7446 19.718 17.3201 19.0709 16.9014C18.4356 16.4904 17.7898 16.1207 17.3811 15.9146C17.086 15.766 16.897 15.6714 16.7479 15.6105C16.6027 15.5513 16.5605 15.5524 16.5622 15.5524C16.5758 15.5524 16.5294 15.5259 16.0376 15.8913C15.9874 15.9287 15.9331 15.9703 15.8756 16.0144C15.6564 16.1824 15.3911 16.3858 15.1282 16.5226C14.7354 16.7271 14.2844 16.8301 13.7408 16.7142C13.265 16.6127 12.6234 16.3119 11.9635 15.9009C11.2857 15.4787 10.5283 14.9025 9.82022 14.1967C9.11232 13.491 8.52332 12.7244 8.08905 12.0382C7.66771 11.3724 7.35079 10.7176 7.24782 10.238C7.13059 9.69183 7.23747 9.24082 7.44334 8.8503C7.57601 8.59864 7.77433 8.33861 7.93755 8.1246C7.98557 8.06164 8.03056 8.00265 8.06994 7.94904C8.38523 7.51975 8.37783 7.45132 8.37702 7.44385C8.377 7.4436 8.37698 7.44342 8.37698 7.4433C8.37695 7.42885 8.37362 7.37348 8.31821 7.22412C8.26155 7.07136 8.17334 6.87805 8.03753 6.586C7.85207 6.18825 7.48853 5.55399 7.07223 4.92095C6.6511 4.28056 6.21674 3.70399 5.89935 3.39174L5.89881 3.39121L5.89828 3.39068C5.7308 3.22525 5.61562 3.11804 5.53246 3.04825C5.49205 3.06631 5.44336 3.08781 5.39057 3.10977Z" fill="#00858B"/>
</svg>
