<svg width="34" height="33" viewBox="0 0 34 33" fill="none" xmlns="http://www.w3.org/2000/svg">
<g clip-path="url(#clip0_141_10)">
<path d="M12.6989 31.4086C12.6272 31.4086 12.5555 31.4023 12.4903 31.3898C12.1774 31.3398 11.9036 31.1711 11.7211 30.9211C11.5385 30.6711 11.4668 30.3648 11.5255 30.0648L13.3508 20.4086H6.25818C5.854 20.4086 5.48894 20.1898 5.31945 19.8398C5.14344 19.4898 5.19559 19.0773 5.44983 18.7773L19.7329 1.85232C19.961 1.57732 20.3065 1.40857 20.6781 1.40857C20.7237 1.40857 20.7824 1.40857 20.828 1.41482C21.1475 1.45232 21.4278 1.60857 21.6299 1.85232C21.8254 2.09607 21.9167 2.39607 21.8776 2.70232C21.8776 2.72107 21.8711 2.73982 21.8711 2.75857L20.0262 12.4086H27.1188C27.523 12.4086 27.8881 12.6273 28.0576 12.9773C28.2336 13.3273 28.1814 13.7398 27.9272 14.0398L13.6442 30.9711C13.416 31.2461 13.064 31.4086 12.6989 31.4086ZM8.44203 18.4086H14.6024C14.9088 18.4086 15.2022 18.5398 15.4043 18.7648C15.5998 18.9898 15.6846 19.2898 15.6324 19.5836L14.1983 27.1273L24.935 14.4086H18.7746C18.4682 14.4086 18.1748 14.2773 17.9727 14.0461C17.7772 13.8211 17.6924 13.5148 17.7446 13.2273L19.1853 5.67732L8.44203 18.4086Z" fill="white"/>
</g>
<defs>
<clipPath id="clip0_141_10">
<rect width="33.3771" height="32" fill="white" transform="translate(0 0.410156)"/>
</clipPath>
</defs>
</svg>
