<svg width="32" height="32" viewBox="0 0 32 32" fill="none" xmlns="http://www.w3.org/2000/svg">
<path d="M18.6749 30.375H13.3312C13.3249 30.375 13.3187 30.375 13.3124 30.375C12.5124 30.3625 11.8437 29.8062 11.6812 29.025C11.6749 29.0062 11.6749 28.9812 11.6687 28.9625L11.2499 25.975H11.2437C10.7312 25.725 10.2312 25.4375 9.76242 25.1063L6.95617 26.2375C6.94992 26.2375 6.94367 26.2437 6.93742 26.2437C6.17492 26.5312 5.31867 26.2375 4.89992 25.5312C4.89992 25.525 4.89367 25.525 4.89367 25.5187L2.21867 20.8937C1.80617 20.1875 1.96867 19.2875 2.59992 18.7625C2.60617 18.7563 2.61242 18.75 2.61867 18.7437L5.00617 16.8687L4.99992 16.8625C4.97492 16.55 4.96242 16.2687 4.96242 15.9937C4.96242 15.7125 4.97492 15.4313 4.99992 15.1313L2.62492 13.2688C2.61242 13.2625 2.60617 13.2562 2.59992 13.2437C1.98117 12.7187 1.82492 11.825 2.23117 11.125L4.90617 6.5C4.90617 6.49375 4.91242 6.49375 4.91242 6.4875C5.33117 5.7875 6.18742 5.4875 6.94992 5.775C6.95617 5.775 6.96242 5.78125 6.96867 5.78125L9.77492 6.9125C10.2499 6.5875 10.7437 6.3 11.2562 6.05L11.6749 3.05625C11.6749 3.04375 11.6812 3.03125 11.6812 3.025C11.8124 2.23125 12.4999 1.64375 13.3062 1.625C13.3124 1.625 13.3187 1.625 13.3249 1.625H18.6687C18.6749 1.625 18.6812 1.625 18.6874 1.625C19.4874 1.6375 20.1562 2.19375 20.3187 2.975C20.3249 2.99375 20.3249 3.01875 20.3312 3.0375L20.7499 6.025H20.7562C21.2687 6.275 21.7687 6.5625 22.2374 6.89375L25.0437 5.7625C25.0499 5.7625 25.0562 5.75625 25.0624 5.75625C25.8249 5.4625 26.6812 5.7625 27.0999 6.46875C27.0999 6.475 27.1062 6.475 27.1062 6.48125L29.7812 11.1062C30.1937 11.8125 30.0312 12.7125 29.3999 13.2375C29.3937 13.2438 29.3874 13.25 29.3812 13.2563L26.9937 15.1313C26.9937 15.1375 26.9937 15.1438 26.9937 15.1438C27.0187 15.4625 27.0312 15.7438 27.0312 16V16.0063C27.0312 16.2875 27.0187 16.575 26.9937 16.8563L29.3812 18.725C29.3874 18.7313 29.3937 18.7375 29.3999 18.7437C30.0312 19.2687 30.1937 20.1625 29.7812 20.875L27.1062 25.5C27.1062 25.5063 27.0999 25.5063 27.0999 25.5125C26.6812 26.2125 25.8249 26.5125 25.0624 26.225C25.0562 26.225 25.0499 26.2188 25.0437 26.2188L22.2374 25.0875C21.7624 25.4125 21.2687 25.7 20.7562 25.95L20.3374 28.9438C20.3374 28.9563 20.3312 28.9688 20.3312 28.975C20.1937 29.7688 19.5062 30.3562 18.6999 30.375C18.6874 30.375 18.6812 30.375 18.6749 30.375ZM13.6062 28.375H18.3937L18.7749 25.6688C18.8687 25.0125 19.2812 24.4437 19.8812 24.15C20.3062 23.9437 20.7124 23.7063 21.0999 23.4438C21.6499 23.0625 22.3562 22.9813 22.9874 23.2313L25.5249 24.25L27.9124 20.1187L25.3124 18.0875C25.0312 17.8687 24.8874 17.5125 24.9374 17.1625C24.9937 16.7813 25.0187 16.3875 25.0249 16C25.0249 15.7938 25.0124 15.5687 24.9937 15.3062C24.9312 14.6312 25.2187 13.975 25.7499 13.5562L27.9062 11.8625L25.5187 7.73125L22.9812 8.75C22.3562 9 21.6499 8.925 21.0937 8.5375C20.7124 8.26875 20.3062 8.03125 19.8874 7.83125C19.2874 7.54375 18.8687 6.975 18.7687 6.3125L18.3937 3.625H13.6062L13.2249 6.33125C13.1312 6.9875 12.7187 7.55625 12.1187 7.85C11.6937 8.05625 11.2874 8.29375 10.8999 8.55625C10.3499 8.9375 9.64367 9.01875 9.01242 8.76875L6.48742 7.75L4.09992 11.8813L6.24367 13.5688C6.77492 13.9875 7.05617 14.6375 6.99992 15.3125C6.97492 15.5563 6.96867 15.7812 6.96867 16C6.96867 16.2125 6.98117 16.4375 6.99992 16.6938C7.06242 17.3688 6.78117 18.025 6.24992 18.4438L4.09367 20.1375L6.48117 24.2687L9.01242 23.25C9.63742 23 10.3437 23.075 10.8999 23.4625C11.2812 23.7312 11.6874 23.9688 12.1062 24.1688C12.7062 24.4563 13.1249 25.025 13.2249 25.6875L13.6062 28.375ZM16.0062 21C15.8437 21 15.6749 20.9938 15.5124 20.975C14.1812 20.8438 12.9874 20.2 12.1374 19.1688C11.2874 18.1375 10.8937 16.8375 11.0249 15.5063C11.2937 12.7625 13.7499 10.75 16.4937 11.0188C18.8562 11.2563 20.7374 13.1437 20.9749 15.5C21.0062 15.825 21.0062 16.1562 20.9749 16.4875C20.7187 19.0687 18.5437 21 16.0062 21ZM15.9937 13C15.2999 13 14.6374 13.2375 14.0937 13.6812C13.4749 14.1875 13.0874 14.9063 13.0124 15.7063C12.9312 16.5063 13.1687 17.2812 13.6812 17.9062C14.1874 18.525 14.9062 18.9125 15.7062 18.9875C17.3499 19.15 18.8249 17.9438 18.9874 16.2938C19.0062 16.1 19.0062 15.9 18.9874 15.7063C18.8437 14.2875 17.7124 13.1562 16.2937 13.0125C16.1937 13.0062 16.0937 13 15.9937 13Z" fill="white"/>
</svg>
