<svg width="504" height="118" viewBox="0 0 504 118" fill="none" xmlns="http://www.w3.org/2000/svg">
<path d="M37.616 117.152C30.608 117.152 24.368 115.952 18.896 113.552C13.424 111.152 9.104 107.888 5.936 103.76C2.768 99.536 0.992 94.832 0.608 89.648H24.944C25.232 92.432 26.528 94.688 28.832 96.416C31.136 98.144 33.968 99.008 37.328 99.008C40.4 99.008 42.752 98.432 44.384 97.28C46.112 96.032 46.976 94.448 46.976 92.528C46.976 90.224 45.776 88.544 43.376 87.488C40.976 86.336 37.088 85.088 31.712 83.744C25.952 82.4 21.152 81.008 17.312 79.568C13.472 78.032 10.16 75.68 7.376 72.512C4.592 69.248 3.2 64.88 3.2 59.408C3.2 54.8 4.448 50.624 6.944 46.88C9.536 43.04 13.28 40.016 18.176 37.808C23.168 35.6 29.072 34.496 35.888 34.496C45.968 34.496 53.888 36.992 59.648 41.984C65.504 46.976 68.864 53.6 69.728 61.856H46.976C46.592 59.072 45.344 56.864 43.232 55.232C41.216 53.6 38.528 52.784 35.168 52.784C32.288 52.784 30.08 53.36 28.544 54.512C27.008 55.568 26.24 57.056 26.24 58.976C26.24 61.28 27.44 63.008 29.84 64.16C32.336 65.312 36.176 66.464 41.36 67.616C47.312 69.152 52.16 70.688 55.904 72.224C59.648 73.664 62.912 76.064 65.696 79.424C68.576 82.688 70.064 87.104 70.16 92.672C70.16 97.376 68.816 101.6 66.128 105.344C63.536 108.992 59.744 111.872 54.752 113.984C49.856 116.096 44.144 117.152 37.616 117.152ZM168.169 74.528C168.169 76.832 168.025 79.232 167.737 81.728H112.009C112.393 86.72 113.977 90.56 116.761 93.248C119.641 95.84 123.145 97.136 127.273 97.136C133.417 97.136 137.689 94.544 140.089 89.36H166.297C164.953 94.64 162.505 99.392 158.953 103.616C155.497 107.84 151.129 111.152 145.849 113.552C140.569 115.952 134.665 117.152 128.137 117.152C120.265 117.152 113.257 115.472 107.113 112.112C100.969 108.752 96.1689 103.952 92.7129 97.712C89.2569 91.472 87.5289 84.176 87.5289 75.824C87.5289 67.472 89.2089 60.176 92.5689 53.936C96.0249 47.696 100.825 42.896 106.969 39.536C113.113 36.176 120.169 34.496 128.137 34.496C135.913 34.496 142.825 36.128 148.873 39.392C154.921 42.656 159.625 47.312 162.985 53.36C166.441 59.408 168.169 66.464 168.169 74.528ZM142.969 68.048C142.969 63.824 141.529 60.464 138.649 57.968C135.769 55.472 132.169 54.224 127.849 54.224C123.721 54.224 120.217 55.424 117.337 57.824C114.553 60.224 112.825 63.632 112.153 68.048H142.969ZM212.983 49.04C215.863 44.624 219.463 41.168 223.783 38.672C228.103 36.08 232.903 34.784 238.183 34.784V60.848H231.415C225.271 60.848 220.663 62.192 217.591 64.88C214.519 67.472 212.983 72.08 212.983 78.704V116H188.359V35.648H212.983V49.04ZM372.497 35.648L350.753 116H323.537L310.865 63.872L297.761 116H270.689L248.801 35.648H273.425L284.801 93.104L298.337 35.648H324.401L338.081 92.816L349.313 35.648H372.497ZM401.471 27.296C397.151 27.296 393.599 26.048 390.815 23.552C388.127 20.96 386.783 17.792 386.783 14.048C386.783 10.208 388.127 7.04 390.815 4.54399C393.599 1.95199 397.151 0.655992 401.471 0.655992C405.695 0.655992 409.151 1.95199 411.839 4.54399C414.623 7.04 416.015 10.208 416.015 14.048C416.015 17.792 414.623 20.96 411.839 23.552C409.151 26.048 405.695 27.296 401.471 27.296ZM413.711 35.648V116H389.087V35.648H413.711ZM471.444 117.152C464.436 117.152 458.196 115.952 452.724 113.552C447.252 111.152 442.932 107.888 439.764 103.76C436.596 99.536 434.82 94.832 434.436 89.648H458.772C459.06 92.432 460.356 94.688 462.66 96.416C464.964 98.144 467.796 99.008 471.156 99.008C474.228 99.008 476.58 98.432 478.212 97.28C479.94 96.032 480.804 94.448 480.804 92.528C480.804 90.224 479.604 88.544 477.204 87.488C474.804 86.336 470.916 85.088 465.54 83.744C459.78 82.4 454.98 81.008 451.14 79.568C447.3 78.032 443.988 75.68 441.204 72.512C438.42 69.248 437.028 64.88 437.028 59.408C437.028 54.8 438.276 50.624 440.772 46.88C443.364 43.04 447.108 40.016 452.004 37.808C456.996 35.6 462.9 34.496 469.716 34.496C479.796 34.496 487.716 36.992 493.476 41.984C499.332 46.976 502.692 53.6 503.556 61.856H480.804C480.42 59.072 479.172 56.864 477.06 55.232C475.044 53.6 472.356 52.784 468.996 52.784C466.116 52.784 463.908 53.36 462.372 54.512C460.836 55.568 460.068 57.056 460.068 58.976C460.068 61.28 461.268 63.008 463.668 64.16C466.164 65.312 470.004 66.464 475.188 67.616C481.14 69.152 485.988 70.688 489.732 72.224C493.476 73.664 496.74 76.064 499.524 79.424C502.404 82.688 503.892 87.104 503.988 92.672C503.988 97.376 502.644 101.6 499.956 105.344C497.364 108.992 493.572 111.872 488.58 113.984C483.684 116.096 477.972 117.152 471.444 117.152Z" fill="#00858B" fill-opacity="0.1"/>
</svg>
