<svg width="24" height="24" viewBox="0 0 24 24" fill="none" xmlns="http://www.w3.org/2000/svg">
<path fill-rule="evenodd" clip-rule="evenodd" d="M11.1587 3.32978C11.4203 3.20069 11.7082 3.13354 12 3.13354C12.2918 3.13354 12.5797 3.20069 12.8413 3.32978L21.0292 7.37102C21.0298 7.37127 21.0303 7.37151 21.0308 7.37176C21.4702 7.58681 21.8408 7.92038 22.1007 8.33485C22.361 8.7498 22.4999 9.22928 22.5019 9.71908L22.5019 9.72207V18.3757C22.5019 19.8344 21.3066 21.0007 19.8525 21.0007H4.14937C2.69523 21.0007 1.5 19.8344 1.5 18.3757V9.72207L1.5 9.71945C1.50172 9.22993 1.64028 8.75064 1.90004 8.33571C2.15959 7.92113 2.52981 7.58732 2.96894 7.37191C2.96929 7.37174 2.96965 7.37156 2.97 7.37139L11.1587 3.32978ZM11.8224 4.67496C11.8223 4.67497 11.8223 4.67498 11.8223 4.675L3.69983 8.68392L9.39068 12.9828L10.7239 11.9459C10.7239 11.9458 10.7239 11.9459 10.7239 11.9459C11.053 11.6899 11.4581 11.5509 11.8751 11.5509C12.292 11.5509 12.6971 11.6898 13.0263 11.9459L14.3669 12.9886L20.1492 8.60941L12.1777 4.675C12.1777 4.67497 12.1776 4.67495 12.1776 4.67493C12.1223 4.64771 12.0616 4.63354 12 4.63354C11.9384 4.63354 11.8776 4.64772 11.8224 4.67496ZM21.0019 9.84528L15.5926 13.942L19.0853 16.6587C19.4123 16.913 19.4712 17.3842 19.2168 17.7111C18.9625 18.0381 18.4913 18.097 18.1644 17.8427L12.1053 13.1299C12.0395 13.0787 11.9585 13.0509 11.8751 13.0509C11.7917 13.0509 11.7107 13.0787 11.6448 13.1299L5.58529 17.8427C5.25833 18.097 4.78712 18.0381 4.53282 17.7111C4.27853 17.3841 4.33743 16.9129 4.6644 16.6586L8.16453 13.9364L3 10.0351V18.3757C3 18.9879 3.5054 19.5007 4.14937 19.5007H19.8525C20.4965 19.5007 21.0019 18.9879 21.0019 18.3757V9.84528Z" fill="white"/>
</svg>
