<svg width="118" height="531" viewBox="0 0 118 531" fill="none" xmlns="http://www.w3.org/2000/svg">
<path d="M0.847998 41.504C0.847998 33.632 2.528 26.528 5.888 20.192C9.248 13.952 14.048 9.00799 20.288 5.35999C26.528 1.80799 33.824 0.0319946 42.176 0.031995C50.432 0.0319953 57.68 1.856 63.92 5.504C70.256 9.152 75.104 14.144 78.464 20.48C81.824 26.816 83.504 33.92 83.504 41.792C83.504 49.664 81.824 56.768 78.464 63.104C75.104 69.44 70.256 74.432 63.92 78.08C57.68 81.728 50.432 83.552 42.176 83.552C33.92 83.552 26.624 81.68 20.288 77.936C14.048 74.288 9.248 69.248 5.888 62.816C2.528 56.48 0.847998 49.376 0.847998 41.504ZM22.16 41.504C22.16 46.208 23.888 50.192 27.344 53.456C30.8 56.816 35.744 58.496 42.176 58.496C48.608 58.496 53.552 56.864 57.008 53.6C60.464 50.432 62.192 46.496 62.192 41.792C62.192 36.992 60.464 33.008 57.008 29.84C53.648 26.672 48.704 25.088 42.176 25.088C35.744 25.088 30.8 26.624 27.344 29.696C23.888 32.864 22.16 36.8 22.16 41.504ZM83.216 244.059C83.216 254.043 80.192 261.963 74.144 267.819C68.096 273.771 59.696 276.747 48.944 276.747L1.99999 276.747L1.99999 252.267L45.632 252.267C50.816 252.267 54.8 250.875 57.584 248.091C60.464 245.403 61.904 241.659 61.904 236.859C61.904 232.059 60.464 228.267 57.584 225.483C54.8 222.795 50.816 221.451 45.632 221.451L1.99999 221.451L1.99999 196.971L45.632 196.971C50.816 196.971 54.8 195.579 57.584 192.795C60.464 190.107 61.904 186.363 61.904 181.563C61.904 176.763 60.464 172.971 57.584 170.187C54.8 167.499 50.816 166.155 45.632 166.155L1.99999 166.155L1.99999 141.531L82.352 141.531L82.352 166.155L72.272 166.155C75.632 168.651 78.272 171.915 80.192 175.947C82.208 179.979 83.216 184.539 83.216 189.627C83.216 195.675 81.92 201.051 79.328 205.755C76.736 210.555 73.04 214.299 68.24 216.987C72.656 219.771 76.256 223.563 79.04 228.363C81.824 233.163 83.216 238.395 83.216 244.059ZM83.216 350.129C83.216 359.537 80.144 367.025 74 372.593C67.952 378.257 59.6 381.089 48.944 381.089L1.99998 381.089L1.99998 356.609L45.632 356.609C51.008 356.609 55.184 355.217 58.16 352.433C61.136 349.649 62.624 345.905 62.624 341.201C62.624 336.497 61.136 332.753 58.16 329.969C55.184 327.185 51.008 325.793 45.632 325.793L1.99999 325.793L1.99999 301.169L82.352 301.169L82.352 325.793L71.696 325.793C75.248 328.289 78.032 331.649 80.048 335.873C82.16 340.097 83.216 344.849 83.216 350.129ZM90.704 417.784C90.704 413.464 91.952 409.912 94.448 407.128C97.04 404.44 100.208 403.096 103.952 403.096C107.792 403.096 110.96 404.44 113.456 407.128C116.048 409.912 117.344 413.464 117.344 417.784C117.344 422.008 116.048 425.464 113.456 428.152C110.96 430.936 107.792 432.328 103.952 432.328C100.208 432.328 97.04 430.936 94.448 428.152C91.952 425.464 90.704 422.008 90.704 417.784ZM82.352 430.024L1.99998 430.024L1.99998 405.4L82.352 405.4L82.352 430.024ZM43.472 530.813C41.168 530.813 38.768 530.669 36.272 530.381L36.272 474.653C31.28 475.037 27.44 476.621 24.752 479.405C22.16 482.285 20.864 485.789 20.864 489.917C20.864 496.061 23.456 500.333 28.64 502.733L28.64 528.941C23.36 527.597 18.608 525.149 14.384 521.597C10.16 518.141 6.84798 513.773 4.44798 508.493C2.04798 503.213 0.847978 497.309 0.847978 490.781C0.847979 482.909 2.52798 475.901 5.88798 469.757C9.24798 463.613 14.048 458.813 20.288 455.357C26.528 451.901 33.824 450.173 42.176 450.173C50.528 450.173 57.824 451.853 64.064 455.213C70.304 458.669 75.104 463.469 78.464 469.613C81.824 475.757 83.504 482.813 83.504 490.781C83.504 498.557 81.872 505.469 78.608 511.517C75.344 517.565 70.688 522.269 64.64 525.629C58.592 529.085 51.536 530.813 43.472 530.813ZM49.952 505.613C54.176 505.613 57.536 504.173 60.032 501.293C62.528 498.413 63.776 494.813 63.776 490.493C63.776 486.365 62.576 482.861 60.176 479.981C57.776 477.197 54.368 475.469 49.952 474.797L49.952 505.613Z" fill="#00858B" fill-opacity="0.1"/>
</svg>
