<svg width="36" height="33" viewBox="0 0 36 33" fill="none" xmlns="http://www.w3.org/2000/svg">
<g clip-path="url(#clip0_141_187)">
<path fill-rule="evenodd" clip-rule="evenodd" d="M12.1579 2.41016C10.937 2.41016 9.94734 3.30559 9.94734 4.41016V28.4102C9.94734 29.5147 10.937 30.4102 12.1579 30.4102H23.2105C24.4313 30.4102 25.421 29.5147 25.421 28.4102V4.41016C25.421 3.30559 24.4313 2.41016 23.2105 2.41016H22.0351C21.9372 2.75317 21.7394 3.0696 21.4578 3.32437C21.0432 3.69944 20.481 3.91016 19.8947 3.91016H15.4737C14.8874 3.91016 14.3251 3.69944 13.9106 3.32437C13.629 3.0696 13.4312 2.75317 13.3333 2.41016H12.1579ZM12.1579 0.410156H23.2105C25.6522 0.410156 27.6316 2.20102 27.6316 4.41016V28.4102C27.6316 30.6193 25.6522 32.4102 23.2105 32.4102H12.1579C9.71619 32.4102 7.73682 30.6193 7.73682 28.4102V4.41016C7.73682 2.20102 9.71619 0.410156 12.1579 0.410156Z" fill="white"/>
</g>
<defs>
<clipPath id="clip0_141_187">
<rect width="35.3684" height="32" fill="white" transform="translate(0 0.410156)"/>
</clipPath>
</defs>
</svg>
